# xmcd CD database file
#
# Track frame offsets:
#	150
#	24595
#	61920
#	103718
#	155058
#	164837
#	214038
#
# Disc length: 3462 seconds
#
# Revision: 0
# Processed by: cddbd v1.5.1PL2 Copyright (c) Steve Scherf et al.
# Submitted via: CDex 1.50Beta7
#
DISCID=5f0d8407
DTITLE=Thelonius Monk - Misterioso
DYEAR=1958
DGENRE=Jazz
TTITLE0=Nutty
TTITLE1=Blues Five Spot
TTITLE2=Let´s Cool One
TTITLE3=In Walked Bud
TTITLE4=JUst A Gigolo
TTITLE5=Misterioso
TTITLE6=Evidence
EXTD=YEAR: 1958
EXTT0=
EXTT1=
EXTT2=
EXTT3=
EXTT4=
EXTT5=
EXTT6=
PLAYORDER=
